<?xml version="1.0" encoding="UTF-8"?>
<!DOCTYPE svg PUBLIC "-//W3C//DTD SVG 1.1//EN" "http://www.w3.org/Graphics/SVG/1.1/DTD/svg11.dtd">
<!-- Creator: CorelDRAW X7 -->
<svg xmlns="http://www.w3.org/2000/svg" xml:space="preserve" width="12.1918mm" height="12.1918mm" version="1.1" style="shape-rendering:geometricPrecision; text-rendering:geometricPrecision; image-rendering:optimizeQuality; fill-rule:evenodd; clip-rule:evenodd"
viewBox="0 0 1219 1219"
 xmlns:xlink="http://www.w3.org/1999/xlink">
 <defs>
  <style type="text/css">
   <![CDATA[
    .fil0 {fill:#EEEEEF}
    .fil2 {fill:#366B97}
    .fil1 {fill:#FFCA38}
    .fil3 {fill:#FFCA38}
   ]]>
  </style>
 </defs>
 <g id="Layer_x0020_1">
  <metadata id="CorelCorpID_0Corel-Layer"/>
  <g id="_841531792">
   <rect class="fil0" width="1219" height="1219" rx="151" ry="170"/>
   <g>
    <path class="fil1" d="M604 967c-137,-51 -237,-178 -248,-329l0 -1 0 -1 0 0 0 -1 0 -1 -1 -2 0 -1 0 -1 0 0 0 -3 0 0 0 -1 0 -1 0 0 0 0 0 -1 0 -1 0 -6 0 0 0 0 0 0c0,-2 0,-5 0,-7 0,-3 0,-5 0,-8l0 0 0 0 0 0 0 -6 0 -1 0 -1 0 0 0 0 0 -1 0 -1 0 0 0 -3 0 0 0 -1 0 0 1 -3 0 -1 0 0 0 -1 0 -1 0 0c11,-152 111,-279 248,-330l0 95c-84,42 -145,123 -159,219l246 0 0 87 -246 0c14,96 75,177 159,219l0 95z"/>
    <path class="fil2" d="M744 230l1 0 0 0 0 0 1 0c2,0 5,0 7,0l1 0 0 0 1 0 0 0 1 0 0 0 3 0 1 0 0 0 1 0 1 0 0 0 4 1 1 0 1 0 0 0 1 0 1 0 0 0 1 0 7 1 1 0c175,20 315,160 334,336l0 1 1 7 0 1 0 0 0 1 0 1 0 0 0 1 0 4 0 1 0 1 0 0 0 1 1 1 0 1 0 1 0 0 0 1 0 1 0 1 0 6 0 0 0 1 0 0 0 1 0 0 0 1c0,3 0,5 0,8l0 0 0 1 0 1 0 0 0 1 0 1 0 0 0 1 0 1 0 0 0 1 0 1 0 1 0 0 0 1 0 1 0 0 0 0 0 1 0 1 0 0 0 0 0 1 0 0 0 1 0 0 0 0 0 1 0 0 0 1 0 0 0 0 0 0 0 1 0 1 0 0 0 1 0 0 0 1 0 0 0 1 0 0 -1 0 0 0 0 1 0 0 0 2 0 0 0 1 0 0 0 0 0 0 0 1 0 0 0 2 0 0 0 2 0 0 0 1 0 0 -1 4 0 0 0 7 0 0 -88 0 -246 0 0 247 0 87 -1 0 -7 1 -1 0 0 0 -1 0 -1 0 0 0 -1 0 -1 0 -4 1 0 0 -1 0 -1 0 0 0 -1 0 -3 0 0 0 -1 0 0 0 -1 0 0 0 -1 0 -7 1 -1 0 0 0 0 0 -1 0c-3,0 -6,0 -9,0 -15,0 -29,-1 -44,-3l0 -87 0 -247 0 -87 0 -246 0 -88c15,-2 29,-3 44,-3 3,0 6,0 9,1zm281 336c-19,-127 -119,-228 -246,-246l0 246 246 0z"/>
    <rect class="fil1" x="104" y="507" width="237.015" height="85.44" rx="40" ry="43"/>
    <rect class="fil3" x="105" y="628" width="236.886" height="85.44" rx="39" ry="43"/>
    <rect class="fil3" x="218" y="868" width="235.183" height="85.44" rx="39" ry="43"/>
    <rect class="fil3" x="143" y="747" width="236.066" height="85.44" rx="39" ry="43"/>
    <rect class="fil1" x="219" y="266" width="234.031" height="85.44" rx="39" ry="43"/>
    <rect class="fil1" x="140" y="387" width="236.214" height="85.44" rx="39" ry="43"/>
   </g>
  </g>
 </g>
</svg>
