<?xml version="1.0" encoding="UTF-8"?>
<!DOCTYPE svg PUBLIC "-//W3C//DTD SVG 1.1//EN" "http://www.w3.org/Graphics/SVG/1.1/DTD/svg11.dtd">
<!-- Creator: CorelDRAW X7 -->
<svg xmlns="http://www.w3.org/2000/svg" xml:space="preserve" width="21.6746mm" height="21.6746mm" version="1.1" style="shape-rendering:geometricPrecision; text-rendering:geometricPrecision; image-rendering:optimizeQuality; fill-rule:evenodd; clip-rule:evenodd"
viewBox="0 0 2167 2167"
 xmlns:xlink="http://www.w3.org/1999/xlink">
 <defs>
  <style type="text/css">
   <![CDATA[
    .fil0 {fill:#EEEEEF}
    .fil2 {fill:#366B97}
    .fil1 {fill:#FFCA38}
    .fil3 {fill:#FFCA38}
   ]]>
  </style>
 </defs>
 <g id="Layer_x0020_1">
  <metadata id="CorelCorpID_0Corel-Layer"/>
  <g id="_841337584">
   <rect class="fil0" width="2167" height="2167" rx="269" ry="302"/>
   <g>
    <path class="fil1" d="M1074 1719c-244,-90 -422,-316 -441,-585l0 -2 -1 -1 0 -1 0 -1 0 -1 0 -5 0 -1 0 -2 0 0 0 -5 -1 -1 0 -1 0 -1 0 -1 0 0 0 -2 0 -1 0 -11 0 0 0 0 0 0c0,-4 0,-9 0,-13 0,-5 0,-9 0,-14l0 0 0 0 0 0 0 -11 0 -1 0 -1 0 0 0 -1 0 -2 0 -1 1 -1 0 -5 0 0 0 -1 0 -1 0 -5 0 -1 0 -2 0 -1 1 -1 0 -1c19,-270 197,-496 441,-585l0 168c-149,74 -257,218 -283,389l438 0 0 155 -438 0c26,171 134,315 283,389l0 169z"/>
    <path class="fil2" d="M1323 408l1 0 0 0 1 0 1 0c4,0 8,0 12,1l2 0 1 0 0 0 1 0 1 0 1 0 5 0 2 0 1 0 1 0 1 1 1 0 8 0 1 0 1 0 1 0 1 1 2 0 1 0 1 0 12 1 1 0c313,36 560,285 594,598l1 1 1 13 0 1 0 2 0 1 0 1 0 1 0 1 1 8 0 1 0 1 0 1 0 1 0 3 1 1 0 1 0 2 0 1 0 2 0 1 0 10 0 1 0 2 0 0 0 1 0 1 0 1c0,5 1,9 1,14l0 1 0 1 0 1 0 2 -1 1 0 1 0 1 0 2 0 1 0 1 0 1 0 1 0 2 0 1 0 1 0 1 0 0 0 2 0 1 0 1 0 1 0 0 0 1 0 0 0 2 0 0 0 1 0 1 0 0 0 1 0 0 0 1 0 0 0 2 0 1 0 1 0 1 0 0 -1 2 0 0 0 1 0 0 0 1 0 0 0 1 0 0 0 4 0 0 0 1 0 0 0 1 0 0 0 1 0 0 0 4 -1 0 0 4 0 0 0 2 0 0 -1 6 0 0 -1 13 0 0 -156 0 -438 0 0 438 0 156 -1 0 -12 2 -1 0 -1 0 -2 0 -1 0 -1 0 -1 0 -1 0 -8 1 -1 0 -1 0 -1 0 -1 0 -2 0 -5 1 -1 0 -1 0 -1 0 0 0 -1 0 -2 0 -12 0 -1 0 -1 0 0 0 -1 0c-6,1 -11,1 -16,1 -27,0 -52,-2 -78,-5l0 -156 0 -438 0 -155 0 -438 0 -156c26,-3 51,-4 78,-4 5,0 10,0 16,0zm499 598c-33,-226 -212,-404 -438,-438l0 438 438 0z"/>
    <rect class="fil1" x="185" y="902" width="421" height="152" rx="70" ry="76"/>
    <rect class="fil3" x="187" y="1116" width="421" height="152" rx="70" ry="76"/>
    <rect class="fil3" x="388" y="1543" width="418" height="152" rx="70" ry="76"/>
    <rect class="fil3" x="255" y="1328" width="420" height="152" rx="70" ry="76"/>
    <rect class="fil1" x="390" y="473" width="416" height="152" rx="69" ry="76"/>
    <rect class="fil1" x="249" y="687" width="420" height="152" rx="70" ry="76"/>
   </g>
  </g>
 </g>
</svg>
