<?xml version="1.0" encoding="UTF-8"?>
<!DOCTYPE svg PUBLIC "-//W3C//DTD SVG 1.1//EN" "http://www.w3.org/Graphics/SVG/1.1/DTD/svg11.dtd">
<!-- Creator: CorelDRAW X7 -->
<svg xmlns="http://www.w3.org/2000/svg" xml:space="preserve" width="4.0638mm" height="4.0638mm" version="1.1" style="shape-rendering:geometricPrecision; text-rendering:geometricPrecision; image-rendering:optimizeQuality; fill-rule:evenodd; clip-rule:evenodd"
viewBox="0 0 406 406"
 xmlns:xlink="http://www.w3.org/1999/xlink">
 <defs>
  <style type="text/css">
   <![CDATA[
    .fil0 {fill:#EEEEEF}
    .fil2 {fill:#366B97}
    .fil1 {fill:#FFCA38}
    .fil3 {fill:#FFCA38}
   ]]>
  </style>
 </defs>
 <g id="Layer_x0020_1">
  <metadata id="CorelCorpID_0Corel-Layer"/>
  <g id="_844637008">
   <rect class="fil0" width="406" height="406" rx="50" ry="57"/>
   <g>
    <path class="fil1" d="M201 322c-45,-17 -79,-59 -82,-109l0 -1 0 0 0 0 0 0 0 -1 -1 0 0 -1 0 0 0 0 0 -1 0 0 0 0 0 -1 0 0 0 0 0 0 0 0 0 -2 0 0 0 0 0 0c0,-1 0,-2 0,-3 0,-1 0,-1 0,-2l0 0 0 0 0 0 0 -2 0 -1 0 0 0 0 0 0 0 0 0 -1 0 0 0 -1 0 0 0 0 0 0 1 -1 0 0 0 0 0 -1 0 0 0 0c3,-51 37,-93 82,-110l0 32c-28,14 -48,41 -53,73l82 0 0 29 -82 0c5,32 25,59 53,73l0 31z"/>
    <path class="fil2" d="M248 77l0 0 0 0 0 0 1 0c0,0 1,0 2,0l0 0 0 0 1 0 0 0 0 0 0 0 1 0 0 0 0 0 1 0 0 0 0 0 1 0 1 0 0 0 0 0 0 0 1 0 0 0 0 0 2 0 1 0c58,7 105,54 111,112l0 1 0 2 0 0 0 0 0 1 0 0 0 0 0 0 0 2 0 0 0 0 0 0 0 1 1 0 0 0 0 1 0 0 0 0 0 0 0 1 0 2 0 0 0 0 0 0 0 0 0 0 0 1c0,1 0,1 0,2l0 0 0 1 0 0 0 0 0 0 0 1 0 0 0 0 0 0 0 0 0 1 0 0 0 0 0 0 0 1 0 0 0 0 0 0 0 0 0 1 0 0 0 0 0 0 0 0 0 0 0 0 0 0 0 1 0 0 0 0 0 0 0 0 0 0 0 0 0 1 0 0 0 0 0 0 0 0 0 0 0 1 0 0 -1 0 0 0 0 0 0 0 0 1 0 0 0 0 0 0 0 0 0 0 0 0 0 0 0 1 0 0 0 1 0 0 0 0 0 0 0 1 0 0 0 3 0 0 -29 0 -82 0 0 82 0 29 -1 0 -2 0 0 0 0 0 -1 0 0 0 0 0 0 0 -1 0 -1 1 0 0 0 0 -1 0 0 0 0 0 -1 0 0 0 0 0 0 0 -1 0 0 0 0 0 -2 0 -1 0 0 0 0 0 0 0c-1,0 -2,0 -3,0 -5,0 -10,0 -15,-1l0 -29 0 -82 0 -29 0 -82 0 -30c5,0 10,-1 15,-1 1,0 2,0 3,1zm94 112c-7,-43 -40,-76 -82,-82l0 82 82 0z"/>
    <rect class="fil1" x="35" y="169" width="79.0051" height="28.48" rx="13" ry="14"/>
    <rect class="fil3" x="35" y="209" width="78.962" height="28.48" rx="13" ry="14"/>
    <rect class="fil3" x="73" y="289" width="78.3942" height="28.48" rx="13" ry="14"/>
    <rect class="fil3" x="48" y="249" width="78.6885" height="28.48" rx="13" ry="14"/>
    <rect class="fil1" x="73" y="89" width="78.0102" height="28.48" rx="13" ry="14"/>
    <rect class="fil1" x="47" y="129" width="78.738" height="28.48" rx="13" ry="14"/>
   </g>
  </g>
 </g>
</svg>
