<?xml version="1.0" encoding="UTF-8"?>
<!DOCTYPE svg PUBLIC "-//W3C//DTD SVG 1.1//EN" "http://www.w3.org/Graphics/SVG/1.1/DTD/svg11.dtd">
<!-- Creator: CorelDRAW X7 -->
<svg xmlns="http://www.w3.org/2000/svg" xml:space="preserve" width="43.3492mm" height="43.3492mm" version="1.1" style="shape-rendering:geometricPrecision; text-rendering:geometricPrecision; image-rendering:optimizeQuality; fill-rule:evenodd; clip-rule:evenodd"
viewBox="0 0 4335 4335"
 xmlns:xlink="http://www.w3.org/1999/xlink">
 <defs>
  <style type="text/css">
   <![CDATA[
    .fil0 {fill:#EEEEEF}
    .fil2 {fill:#366B97}
    .fil1 {fill:#FFCA38}
    .fil3 {fill:#FFCA38}
   ]]>
  </style>
 </defs>
 <g id="Layer_x0020_1">
  <metadata id="CorelCorpID_0Corel-Layer"/>
  <g id="_708742288">
   <rect class="fil0" width="4335" height="4335" rx="538" ry="605"/>
   <g>
    <path class="fil1" d="M2148 3437c-487,-178 -843,-630 -883,-1170l0 -2 0 -3 0 -2 0 -2 -1 -3 0 -10 0 -2 0 -2 0 -1 -1 -9 0 -2 0 -3 0 -2 0 -2 0 -1 0 -2 -1 -3 0 -21 0 0 0 -1 0 0c0,-9 0,-18 0,-27 0,-8 0,-17 0,-26l0 -1 0 0 0 0 0 -21 1 -3 0 -2 0 -1 0 -2 0 -2 0 -3 0 -2 1 -10 0 0 0 -2 0 -3 0 -9 1 -3 0 -2 0 -3 0 -2 0 -2c40,-540 396,-992 883,-1170l0 336c-298,149 -515,437 -566,779l876 0 0 309 -876 0c51,342 268,630 566,779l0 336z"/>
    <path class="fil2" d="M2645 816l3 0 0 0 2 0 2 0c9,1 17,1 25,1l2 0 3 0 1 0 1 1 2 0 3 0 10 0 2 1 2 0 3 0 2 0 3 0 14 1 3 1 2 0 2 0 3 0 2 0 3 1 2 0 24 2 2 1c625,71 1121,569 1189,1195l0 2 3 26 0 3 0 2 0 3 1 2 0 2 0 3 1 14 0 3 0 2 0 3 1 2 0 5 0 2 0 3 0 2 0 3 1 4 0 3 0 19 1 3 0 2 0 2 0 1 0 2 0 2c0,9 0,18 0,27l0 3 0 2 0 3 0 2 0 3 0 2 0 3 0 2 0 3 0 2 0 2 0 3 0 2 0 3 0 2 -1 3 0 0 0 2 0 2 0 3 0 2 0 0 0 3 0 0 0 2 0 0 0 3 0 2 0 0 0 3 0 0 0 2 0 0 -1 2 0 3 0 2 0 3 0 0 0 2 0 0 0 2 0 0 0 3 0 0 -1 2 0 0 0 8 0 0 0 2 0 0 0 2 0 0 0 3 0 0 -1 7 0 0 -1 7 0 0 0 5 0 0 -1 12 0 0 -3 26 0 0 -312 0 -876 0 0 877 0 311 -2 1 -24 2 -2 0 -3 0 -2 1 -3 0 -2 0 -2 0 -3 1 -14 1 -3 0 -2 0 -3 0 -2 0 -2 0 -10 1 -3 0 -2 0 -1 0 -1 0 -3 1 -2 0 -25 1 -2 0 -2 0 0 0 -3 0c-10,0 -21,0 -32,0 -52,0 -104,-3 -155,-9l0 -311 0 -877 0 -309 0 -877 0 -311c51,-6 103,-9 155,-9 11,0 22,0 32,0zm999 1197c-67,-452 -424,-809 -876,-877l0 877 876 0z"/>
    <rect class="fil1" x="370" y="1804" width="843" height="304" rx="140" ry="152"/>
    <rect class="fil3" x="374" y="2233" width="842" height="304" rx="140" ry="152"/>
    <rect class="fil3" x="776" y="3086" width="836" height="304" rx="139" ry="152"/>
    <rect class="fil3" x="509" y="2656" width="839" height="304" rx="140" ry="152"/>
    <rect class="fil1" x="780" y="946" width="832" height="304" rx="139" ry="152"/>
    <rect class="fil1" x="497" y="1375" width="840" height="304" rx="140" ry="152"/>
   </g>
  </g>
 </g>
</svg>
