<?xml version="1.0" encoding="UTF-8"?>
<!DOCTYPE svg PUBLIC "-//W3C//DTD SVG 1.1//EN" "http://www.w3.org/Graphics/SVG/1.1/DTD/svg11.dtd">
<!-- Creator: CorelDRAW X7 -->
<svg xmlns="http://www.w3.org/2000/svg" xml:space="preserve" width="6.0958mm" height="6.0958mm" version="1.1" style="shape-rendering:geometricPrecision; text-rendering:geometricPrecision; image-rendering:optimizeQuality; fill-rule:evenodd; clip-rule:evenodd"
viewBox="0 0 610 610"
 xmlns:xlink="http://www.w3.org/1999/xlink">
 <defs>
  <style type="text/css">
   <![CDATA[
    .fil0 {fill:#EEEEEF}
    .fil2 {fill:#366B97}
    .fil1 {fill:#FFCA38}
    .fil3 {fill:#FFCA38}
   ]]>
  </style>
 </defs>
 <g id="Layer_x0020_1">
  <metadata id="CorelCorpID_0Corel-Layer"/>
  <g id="_610818928">
   <rect class="fil0" width="610" height="610" rx="76" ry="85"/>
   <g>
    <path class="fil1" d="M302 483c-68,-25 -119,-88 -124,-164l0 -1 0 0 0 0 0 -1 0 0 0 -1 0 -1 0 0 0 0 0 -1 0 -1 0 0 0 0 0 -1 0 0 0 0 0 0 -1 -3 0 0 0 0 0 0c0,-2 0,-3 0,-4 0,-1 0,-3 0,-4l0 0 0 0 0 0 1 -3 0 0 0 -1 0 0 0 0 0 0 0 -1 0 0 0 -1 0 -1 0 0 0 0 0 -2 0 0 0 0 0 -1 0 0 0 0c5,-76 56,-140 124,-165l0 48c-42,20 -72,61 -80,109l124 0 0 44 -124 0c8,48 38,88 80,109l0 47z"/>
    <path class="fil2" d="M372 115l0 0 0 0 1 0 0 0c1,0 2,0 3,0l1 0 0 0 0 0 0 0 1 0 0 0 1 0 1 0 0 0 0 0 1 0 0 0 2 0 1 0 0 0 0 0 1 0 0 1 0 0 1 0 3 0 0 0c88,10 158,80 167,168l0 0 1 4 0 0 0 1 0 0 0 0 0 1 0 0 0 2 0 0 0 1 0 0 0 0 0 1 0 0 0 1 0 0 0 1 0 0 0 1 0 2 0 1 1 0 0 0 0 0 0 1 0 0c0,1 0,3 0,4l0 0 0 0 0 1 0 0 0 1 0 0 0 0 0 1 0 0 0 0 0 1 0 0 0 0 0 1 -1 0 0 0 0 0 0 1 0 0 0 0 0 1 0 0 0 0 0 0 0 0 0 0 0 1 0 0 0 0 0 0 0 0 0 1 0 0 0 0 0 0 0 1 0 0 0 0 0 0 0 0 0 1 0 0 0 0 0 0 0 0 0 0 0 1 0 0 0 1 0 0 0 0 0 0 0 0 0 0 0 1 0 0 0 2 0 0 0 0 0 0 0 2 0 0 -1 4 0 0 -43 0 -124 0 0 123 0 44 0 0 -3 0 -1 0 0 0 0 0 -1 0 0 0 0 0 -1 0 -2 0 0 0 -1 0 0 0 0 0 -1 0 -1 1 0 0 -1 0 0 0 0 0 0 0 -1 0 -3 0 0 0 -1 0 0 0 0 0c-2,0 -3,0 -5,0 -7,0 -14,-1 -21,-1l0 -44 0 -123 0 -44 0 -123 0 -44c7,-1 14,-1 21,-1 2,0 3,0 5,0zm141 168c-10,-64 -60,-114 -124,-123l0 123 124 0z"/>
    <rect class="fil1" x="52" y="254" width="118.508" height="42.72" rx="20" ry="21"/>
    <rect class="fil3" x="53" y="314" width="118.443" height="42.72" rx="20" ry="21"/>
    <rect class="fil3" x="109" y="434" width="117.591" height="42.72" rx="20" ry="21"/>
    <rect class="fil3" x="72" y="374" width="118.033" height="42.72" rx="20" ry="21"/>
    <rect class="fil1" x="110" y="133" width="117.015" height="42.72" rx="20" ry="21"/>
    <rect class="fil1" x="70" y="193" width="118.107" height="42.72" rx="20" ry="21"/>
   </g>
  </g>
 </g>
</svg>
