<?xml version="1.0" encoding="UTF-8"?>
<!DOCTYPE svg PUBLIC "-//W3C//DTD SVG 1.1//EN" "http://www.w3.org/Graphics/SVG/1.1/DTD/svg11.dtd">
<!-- Creator: CorelDRAW X7 -->
<svg xmlns="http://www.w3.org/2000/svg" xml:space="preserve" width="8.1278mm" height="8.1278mm" version="1.1" style="shape-rendering:geometricPrecision; text-rendering:geometricPrecision; image-rendering:optimizeQuality; fill-rule:evenodd; clip-rule:evenodd"
viewBox="0 0 813 813"
 xmlns:xlink="http://www.w3.org/1999/xlink">
 <defs>
  <style type="text/css">
   <![CDATA[
    .fil0 {fill:#EEEEEF}
    .fil2 {fill:#366B97}
    .fil1 {fill:#FFCA38}
    .fil3 {fill:#FFCA38}
   ]]>
  </style>
 </defs>
 <g id="Layer_x0020_1">
  <metadata id="CorelCorpID_0Corel-Layer"/>
  <g id="_712427072">
   <rect class="fil0" width="813" height="813" rx="101" ry="113"/>
   <g>
    <path class="fil1" d="M403 644c-92,-33 -158,-118 -166,-219l0 0 0 -1 0 0 0 -1 0 0 0 -2 0 0 0 -1 0 0 0 -2 0 0 0 -1 0 0 0 0 0 -1 0 0 0 0 0 -4 0 0 0 -1 0 0c0,-1 0,-3 0,-5 0,-1 0,-3 0,-5l0 0 0 0 0 0 0 -4 0 0 0 -1 0 0 0 0 0 -1 0 0 0 -1 0 -1 0 0 0 -1 0 0 0 -2 0 -1 0 0 0 0 0 -1 0 0c8,-102 74,-186 166,-220l0 63c-56,28 -97,82 -106,146l164 0 0 58 -164 0c9,65 50,119 106,146l0 63z"/>
    <path class="fil2" d="M496 153l0 0 1 0 0 0 0 0c2,0 3,0 5,0l0 0 1 0 0 0 0 0 1 0 0 0 2 0 0 0 1 0 0 1 1 0 0 0 3 0 0 0 1 0 0 0 1 0 0 0 1 0 0 0 5 1 0 0c117,13 210,106 223,224l0 0 0 5 0 1 1 0 0 0 0 1 0 0 0 1 0 2 0 1 0 0 0 1 0 0 0 1 0 1 0 0 0 1 0 0 0 1 0 0 0 4 0 1 0 0 0 0 0 0 0 1 0 0c0,2 0,4 0,5l0 1 0 0 0 1 0 0 0 1 0 0 0 1 0 0 0 1 0 0 0 0 0 1 0 0 0 1 0 0 0 1 0 0 0 0 0 1 0 0 0 1 0 0 0 0 0 0 0 0 0 0 0 1 0 0 0 0 0 1 0 0 0 0 0 0 0 1 0 0 0 1 0 0 0 0 0 1 0 0 0 0 0 0 0 0 0 0 0 1 0 0 0 1 0 0 0 1 0 0 0 0 0 0 0 1 0 0 0 1 0 0 0 1 0 0 -1 1 0 0 0 3 0 0 0 4 0 0 -59 0 -164 0 0 165 0 58 0 0 -5 1 0 0 -1 0 0 0 -1 0 0 0 -1 0 0 0 -3 0 0 0 -1 0 0 0 -1 0 0 0 -2 0 0 0 -1 0 0 1 0 0 -1 0 0 0 -5 0 0 0 0 0 -1 0 0 0c-2,0 -4,0 -6,0 -10,0 -20,-1 -29,-2l0 -58 0 -165 0 -58 0 -164 0 -58c9,-1 19,-2 29,-2 2,0 4,0 6,0zm187 224c-12,-84 -79,-151 -164,-164l0 164 164 0z"/>
    <rect class="fil1" x="69" y="338" width="158.01" height="56.96" rx="26" ry="28"/>
    <rect class="fil3" x="70" y="419" width="157.924" height="56.96" rx="26" ry="28"/>
    <rect class="fil3" x="146" y="579" width="156.788" height="56.96" rx="26" ry="28"/>
    <rect class="fil3" x="96" y="498" width="157.377" height="56.96" rx="26" ry="28"/>
    <rect class="fil1" x="146" y="177" width="156.02" height="56.96" rx="26" ry="28"/>
    <rect class="fil1" x="93" y="258" width="157.476" height="56.96" rx="26" ry="28"/>
   </g>
  </g>
 </g>
</svg>
