<?xml version="1.0" encoding="UTF-8"?>
<!DOCTYPE svg PUBLIC "-//W3C//DTD SVG 1.1//EN" "http://www.w3.org/Graphics/SVG/1.1/DTD/svg11.dtd">
<!-- Creator: CorelDRAW X7 -->
<svg xmlns="http://www.w3.org/2000/svg" xml:space="preserve" width="86.6986mm" height="24.8072mm" version="1.1" style="shape-rendering:geometricPrecision; text-rendering:geometricPrecision; image-rendering:optimizeQuality; fill-rule:evenodd; clip-rule:evenodd"
viewBox="0 0 8670 2481"
 xmlns:xlink="http://www.w3.org/1999/xlink">
 <defs>
  <style type="text/css">
   <![CDATA[
    .fil1 {fill:#366B97}
    .fil0 {fill:#FFCA38}
    .fil2 {fill:#FFCA38}
    .fil4 {fill:#366B97;fill-rule:nonzero}
    .fil3 {fill:#FFCA38;fill-rule:nonzero}
   ]]>
  </style>
 </defs>
 <g id="Layer_x0020_1">
  <metadata id="CorelCorpID_0Corel-Layer"/>
  <g id="_706683872">
   <g>
    <path class="fil0" d="M1636 2407c-448,-164 -775,-579 -812,-1075l0 -2 0 -2 0 -3 0 -2 0 -2 -1 -9 0 -2 0 -2 0 -1 -1 -8 0 -3 0 -2 0 -2 0 -2 0 0 0 -2 0 -3 -1 -19 0 -1 0 0 0 0c0,-8 0,-16 0,-25 0,-8 0,-16 0,-24l0 0 0 -1 0 0 1 -20 0 -2 0 -2 0 -1 0 -1 0 -3 0 -2 0 -2 1 -9 0 0 0 -2 0 -2 1 -9 0 -2 0 -3 0 -2 0 -2 0 -2c37,-496 364,-911 812,-1075l0 309c-274,136 -474,401 -521,715l806 0 0 285 -806 0c47,314 247,578 521,715l0 309z"/>
    <path class="fil1" d="M2092 -1l3 0 0 0 2 0 2 0c8,0 15,0 22,1l3 0 2 0 1 0 1 0 2 0 3 0 8 1 3 0 2 0 2 0 2 0 3 0 13 2 2 0 2 0 2 0 3 0 2 0 2 1 2 0 22 2 2 0c575,66 1030,523 1093,1099l0 2 2 24 1 2 0 2 0 3 0 2 0 2 0 2 1 14 1 2 0 2 0 2 0 2 0 5 0 2 0 2 1 3 0 2 0 4 0 2 1 18 0 3 0 2 0 2 0 0 0 2 0 3c0,8 0,16 0,24l0 3 0 2 0 2 0 2 0 3 0 2 0 2 0 2 0 3 0 2 0 2 0 2 0 3 0 2 0 2 0 2 0 0 0 3 0 2 -1 2 0 2 0 0 0 3 0 0 0 2 0 0 0 2 0 2 0 0 0 2 0 0 0 3 0 0 0 2 0 2 -1 2 0 3 0 0 0 2 0 0 0 2 0 0 0 2 0 0 0 3 0 0 -1 6 0 0 0 2 0 0 0 3 0 0 0 2 0 0 -1 6 0 0 0 7 0 0 0 5 0 0 -1 11 0 0 -3 24 0 0 -286 0 -806 0 0 805 0 286 -2 1 -22 2 -2 0 -2 0 -2 0 -3 1 -2 0 -2 0 -2 0 -13 1 -3 0 -2 1 -2 0 -2 0 -3 0 -8 1 -3 0 -2 0 -1 0 -1 0 -2 0 -3 0 -22 1 -2 0 -2 0 0 0 -3 0c-9,0 -19,0 -29,0 -48,0 -96,-2 -142,-8l0 -286 0 -805 0 -285 0 -805 0 -287c46,-5 94,-8 142,-8 10,0 20,0 29,1zm919 1099c-62,-415 -390,-743 -806,-805l0 805 806 0z"/>
    <path class="fil0" d="M141 906l495 0c77,0 140,63 140,140l0 0c0,76 -63,139 -140,139l-495 0c-77,0 -139,-63 -139,-139l0 0c0,-77 62,-140 139,-140z"/>
    <path class="fil2" d="M145 1300l495 0c77,0 139,63 139,140l0 0c0,77 -62,139 -139,139l-495 0c-77,0 -140,-62 -140,-139l0 0c0,-77 63,-140 140,-140z"/>
    <path class="fil2" d="M515 2363l489 0c77,0 139,-63 139,-139l0 0c0,-77 -62,-140 -139,-140l-489 0c-77,0 -140,63 -140,140l0 0c0,76 63,139 140,139z"/>
    <path class="fil2" d="M269 1969l493 0c76,0 139,-63 139,-140l0 0c0,-76 -63,-139 -139,-139l-493 0c-76,0 -139,63 -139,139l0 0c0,77 63,140 139,140z"/>
    <path class="fil0" d="M518 118l486 0c77,0 139,62 139,139l0 0c0,77 -62,140 -139,140l-486 0c-76,0 -139,-63 -139,-140l0 0c0,-77 63,-139 139,-139z"/>
    <path class="fil0" d="M258 512l493 0c77,0 139,63 139,139l0 0c0,77 -62,140 -139,140l-493 0c-77,0 -139,-63 -139,-140l0 0c0,-76 62,-139 139,-139z"/>
   </g>
   <path class="fil3" d="M4734 493l-549 0c8,49 29,88 63,117 35,29 78,44 132,44 63,0 118,-23 164,-68l143 68c-36,52 -79,90 -129,115 -50,24 -109,37 -178,37 -106,0 -193,-34 -260,-102 -67,-68 -101,-154 -101,-256 0,-105 34,-192 101,-261 67,-69 151,-104 252,-104 107,0 195,35 262,104 67,69 101,160 101,273l-1 33zm-170 -135c-12,-38 -34,-68 -67,-92 -33,-23 -72,-35 -116,-35 -48,0 -89,13 -126,40 -22,16 -43,45 -62,87l371 0zm248 -258l199 0 134 188 135 -188 196 0 -232 324 261 365 -199 0 -161 -226 -162 226 -196 0 259 -363 -234 -326zm951 0l0 76c31,-31 65,-54 100,-70 36,-15 75,-23 116,-23 89,0 164,34 227,102 62,68 93,154 93,261 0,102 -32,187 -97,256 -64,69 -140,104 -228,104 -39,0 -76,-8 -110,-22 -34,-14 -67,-37 -101,-69l0 325 -170 0 0 -940 170 0zm180 141c-54,0 -99,19 -134,56 -36,37 -53,85 -53,145 0,62 17,111 53,149 35,37 80,56 134,56 52,0 96,-19 132,-57 35,-39 53,-88 53,-147 0,-59 -18,-107 -53,-145 -35,-38 -79,-57 -132,-57zm457 -141l148 0 0 87c16,-34 37,-60 63,-77 26,-18 55,-27 86,-27 22,0 45,6 69,18l-53 149c-20,-10 -36,-15 -49,-15 -26,0 -48,16 -66,49 -18,33 -27,97 -27,193l0 34 0 278 -171 0 0 -689zm1133 393l-548 0c7,49 29,88 63,117 34,29 78,44 131,44 64,0 118,-23 164,-68l144 68c-36,52 -79,90 -129,115 -50,24 -109,37 -178,37 -107,0 -194,-34 -261,-102 -67,-68 -100,-154 -100,-256 0,-105 33,-192 100,-261 67,-69 151,-104 253,-104 107,0 194,35 261,104 68,69 101,160 101,273l-1 33zm-170 -135c-11,-38 -33,-68 -66,-92 -34,-23 -72,-35 -116,-35 -48,0 -90,13 -126,40 -23,16 -44,45 -63,87l371 0zm727 -161l-105 108c-43,-43 -82,-65 -117,-65 -19,0 -34,4 -45,12 -11,9 -16,19 -16,31 0,9 3,18 10,25 7,8 24,19 51,32l63 32c65,33 111,66 135,100 25,34 37,74 37,120 0,61 -22,112 -67,152 -44,41 -104,62 -179,62 -99,0 -179,-40 -238,-118l106 -116c20,24 43,43 70,57 27,15 51,22 72,22 23,0 41,-5 55,-16 14,-11 21,-24 21,-38 0,-27 -25,-53 -75,-78l-58 -29c-110,-56 -165,-126 -165,-210 0,-54 21,-101 62,-139 42,-39 95,-58 159,-58 45,0 86,10 125,30 39,19 72,48 99,84zm565 0l-105 108c-43,-43 -82,-65 -117,-65 -19,0 -34,4 -45,12 -11,9 -16,19 -16,31 0,9 3,18 10,25 7,8 24,19 51,32l63 32c65,33 111,66 135,100 25,34 37,74 37,120 0,61 -22,112 -67,152 -44,41 -104,62 -179,62 -99,0 -179,-40 -238,-118l106 -116c20,24 43,43 70,57 27,15 51,22 72,22 23,0 41,-5 55,-16 14,-11 21,-24 21,-38 0,-27 -25,-53 -75,-78l-58 -29c-110,-56 -165,-126 -165,-210 0,-54 21,-101 62,-139 42,-39 95,-58 159,-58 45,0 86,10 125,30 39,19 72,48 99,84z"/>
   <path class="fil4" d="M7513 1457l171 0 0 70c39,-32 74,-55 106,-68 31,-12 64,-19 97,-19 67,0 125,24 172,71 40,40 60,100 60,178l0 451 -170 0 0 -299c0,-81 -3,-135 -11,-162 -7,-27 -20,-47 -38,-61 -18,-14 -41,-21 -67,-21 -35,0 -65,12 -90,35 -25,23 -42,55 -51,96 -5,21 -8,67 -8,138l0 274 -171 0 0 -683z"/>
   <path class="fil4" d="M7045 1601c-54,0 -98,18 -133,55 -36,37 -54,85 -54,142 0,59 18,107 53,144 35,37 79,55 133,55 54,0 98,-18 134,-56 36,-37 53,-84 53,-143 0,-58 -17,-106 -52,-142 -35,-37 -80,-55 -134,-55zm-3 -161c65,0 125,16 182,48 57,33 101,76 133,131 32,56 48,115 48,179 0,64 -16,124 -48,180 -32,56 -76,100 -131,131 -56,32 -116,48 -183,48 -98,0 -182,-35 -251,-104 -70,-70 -105,-155 -105,-254 0,-106 40,-195 118,-266 69,-62 148,-93 237,-93z"/>
   <path class="fil4" d="M5972 1193l171 0 0 334c33,-29 67,-51 101,-65 33,-14 68,-22 102,-22 68,0 125,24 171,71 40,40 59,100 59,178l0 451 -168 0 0 -299c0,-79 -4,-133 -11,-160 -8,-29 -21,-49 -39,-63 -18,-14 -40,-21 -67,-21 -34,0 -64,12 -89,35 -25,23 -42,54 -52,94 -5,20 -7,67 -7,140l0 274 -171 0 0 -947z"/>
   <polygon class="fil4" points="5593,1205 5764,1205 5764,1457 5866,1457 5866,1605 5764,1605 5764,2140 5593,2140 5593,1605 5506,1605 5506,1457 5593,1457 "/>
   <polygon class="fil4" points="4680,1457 4856,1457 5032,1885 5228,1457 5404,1457 4976,2390 4801,2390 4940,2090 "/>
   <path class="fil4" d="M4194 1578l56 0c44,0 75,-3 92,-10 18,-6 31,-16 41,-31 10,-14 15,-32 15,-53 0,-36 -14,-62 -42,-78 -20,-12 -58,-18 -112,-18l-50 0 0 190zm-175 -362l186 0c101,0 174,10 219,28 44,19 80,49 105,91 26,41 39,91 39,150 0,64 -17,118 -51,160 -33,43 -79,73 -137,90 -35,9 -96,14 -186,14l0 391 -175 0 0 -924z"/>
  </g>
 </g>
</svg>
