<?xml version="1.0" encoding="UTF-8"?>
<!DOCTYPE svg PUBLIC "-//W3C//DTD SVG 1.1//EN" "http://www.w3.org/Graphics/SVG/1.1/DTD/svg11.dtd">
<!-- Creator: CorelDRAW X7 -->
<svg xmlns="http://www.w3.org/2000/svg" xml:space="preserve" width="43.3492mm" height="12.4458mm" version="1.1" style="shape-rendering:geometricPrecision; text-rendering:geometricPrecision; image-rendering:optimizeQuality; fill-rule:evenodd; clip-rule:evenodd"
viewBox="0 0 4335 1245"
 xmlns:xlink="http://www.w3.org/1999/xlink">
 <defs>
  <style type="text/css">
   <![CDATA[
    .fil1 {fill:#366B97}
    .fil0 {fill:#FFCA38}
    .fil2 {fill:#FFCA38}
    .fil4 {fill:#366B97;fill-rule:nonzero}
    .fil3 {fill:#FFCA38;fill-rule:nonzero}
   ]]>
  </style>
 </defs>
 <g id="Layer_x0020_1">
  <metadata id="CorelCorpID_0Corel-Layer"/>
  <g id="_701481920">
   <g>
    <path class="fil0" d="M817 1206c-224,-82 -388,-290 -406,-538l0 -1 0 -1 0 -1 0 -1 0 -1 -1 -5 0 -1 0 -1 0 0 0 -5 0 -1 0 -1 0 -1 0 -1 0 0 0 -1 0 -1 -1 -10 0 0 0 0 0 0c0,-4 0,-9 0,-13 0,-4 0,-8 0,-12l0 0 0 0 0 0 1 -10 0 -1 0 -1 0 -1 0 -1 0 -1 0 -1 0 -1 0 -4 0 0 0 -1 0 -2 1 -4 0 -1 0 -1 0 -1 0 -1 0 -2c18,-248 182,-455 406,-537l0 154c-137,69 -237,201 -260,358l403 0 0 143 -403 0c23,157 123,289 260,357l0 155z"/>
    <path class="fil1" d="M1045 1l2 0 0 0 1 0 1 0c4,0 7,0 11,1l1 0 1 0 1 0 0 0 1 0 2 0 4 0 1 0 1 0 1 0 1 0 2 0 6 1 1 0 1 0 2 0 1 0 1 0 1 1 1 0 11 1 1 0c287,33 515,261 547,549l0 1 1 13 0 1 0 1 0 1 0 1 0 1 0 1 1 7 0 1 0 1 0 1 0 1 0 3 0 1 0 1 0 1 1 1 0 2 0 1 0 9 0 1 0 2 0 0 0 1 0 1 0 1c0,4 0,8 0,12l0 1 0 2 0 1 0 1 0 1 0 1 0 1 0 1 0 1 0 2 0 1 0 1 0 1 0 1 0 1 0 1 0 0 0 1 0 2 0 1 0 1 0 0 0 1 0 0 0 1 0 0 0 1 0 1 0 0 0 1 0 0 0 1 0 0 0 2 -1 1 0 1 0 1 0 0 0 1 0 0 0 1 0 0 0 1 0 0 0 1 0 0 0 4 0 0 0 1 0 0 0 1 0 0 0 1 0 0 -1 3 0 0 0 4 0 0 0 2 0 0 -1 5 0 0 -1 13 0 0 -143 0 -403 0 0 402 0 144 -1 0 -11 1 -1 0 -1 0 -1 0 -1 0 -2 0 -1 1 -1 0 -6 0 -2 0 -1 0 -1 0 -1 0 -1 1 -4 0 -2 0 -1 0 0 0 -1 0 -1 0 -1 0 -11 0 -1 1 -1 0 0 0 -2 0c-4,0 -9,0 -14,0 -24,0 -48,-2 -71,-4l0 -144 0 -402 0 -143 0 -403 0 -143c23,-3 47,-4 71,-4 5,0 10,0 14,0zm460 550c-31,-208 -195,-372 -403,-403l0 403 403 0z"/>
    <path class="fil0" d="M69 455l248 0c38,0 70,31 70,70l0 0c0,38 -32,70 -70,70l-248 0c-38,0 -70,-32 -70,-70l0 0c0,-39 32,-70 70,-70z"/>
    <path class="fil2" d="M71 652l248 0c38,0 69,32 69,70l0 0c0,39 -31,70 -69,70l-248 0c-38,0 -70,-31 -70,-70l0 0c0,-38 32,-70 70,-70z"/>
    <path class="fil2" d="M256 1184l245 0c38,0 70,-31 70,-70l0 0c0,-38 -32,-70 -70,-70l-245 0c-38,0 -70,32 -70,70l0 0c0,39 32,70 70,70z"/>
    <path class="fil2" d="M133 987l247 0c38,0 69,-32 69,-70l0 0c0,-38 -31,-70 -69,-70l-247 0c-38,0 -69,32 -69,70l0 0c0,38 31,70 69,70z"/>
    <path class="fil0" d="M258 61l243 0c38,0 70,31 70,69l0 0c0,39 -32,70 -70,70l-243 0c-38,0 -70,-31 -70,-70l0 0c0,-38 32,-69 70,-69z"/>
    <path class="fil0" d="M128 258l246 0c39,0 70,31 70,70l0 0c0,38 -31,69 -70,69l-246 0c-39,0 -70,-31 -70,-69l0 0c0,-39 31,-70 70,-70z"/>
   </g>
   <path class="fil3" d="M2367 248l-275 0c4,25 15,44 32,59 17,15 39,22 66,22 32,0 59,-12 82,-34l72 34c-18,26 -40,45 -65,57 -25,13 -54,19 -89,19 -53,0 -97,-17 -130,-51 -34,-34 -50,-77 -50,-128 0,-53 16,-96 50,-131 33,-34 75,-52 126,-52 54,0 97,18 131,52 34,35 50,80 50,137l0 16zm-85 -67c-6,-19 -17,-34 -33,-46 -17,-12 -36,-18 -58,-18 -24,0 -45,7 -63,20 -12,8 -22,23 -32,44l186 0zm124 -129l100 0 67 94 67 -94 98 0 -116 162 131 182 -99 0 -81 -113 -81 113 -98 0 129 -181 -117 -163zm476 0l0 38c16,-16 32,-27 50,-35 18,-8 38,-12 58,-12 44,0 82,17 113,51 32,34 47,78 47,131 0,51 -16,94 -48,128 -32,35 -70,52 -115,52 -19,0 -37,-4 -54,-11 -17,-7 -34,-18 -51,-35l0 163 -85 0 0 -470 85 0zm90 70c-27,0 -49,10 -67,28 -18,19 -27,43 -27,73 0,31 9,55 27,74 18,19 40,29 67,29 26,0 48,-10 66,-29 18,-19 27,-44 27,-74 0,-29 -9,-53 -27,-72 -17,-19 -39,-29 -66,-29zm229 -70l74 0 0 43c8,-17 18,-30 31,-38 13,-9 28,-14 43,-14 11,0 23,3 35,9l-27 75c-9,-5 -18,-8 -24,-8 -13,0 -24,8 -33,25 -9,16 -14,49 -14,97l0 16 0 139 -85 0 0 -344zm567 196l-275 0c4,25 15,44 32,59 17,15 39,22 65,22 32,0 60,-12 83,-34l71 34c-18,26 -39,45 -64,57 -25,13 -55,19 -89,19 -53,0 -97,-17 -130,-51 -34,-34 -51,-77 -51,-128 0,-53 17,-96 51,-131 33,-34 75,-52 126,-52 53,0 97,18 131,52 33,35 50,80 50,137l0 16zm-85 -67c-6,-19 -17,-34 -34,-46 -16,-12 -36,-18 -58,-18 -24,0 -45,7 -63,20 -11,8 -21,23 -31,44l186 0zm363 -81l-52 54c-22,-21 -41,-32 -59,-32 -9,0 -17,2 -22,6 -6,4 -9,9 -9,15 0,5 2,9 6,13 3,4 12,9 25,16l31 16c33,16 56,33 68,50 13,17 19,37 19,60 0,30 -11,56 -34,76 -22,21 -52,31 -89,31 -50,0 -90,-20 -119,-59l52 -58c11,12 22,21 36,29 13,7 25,11 36,11 11,0 20,-3 27,-9 7,-5 11,-12 11,-19 0,-13 -13,-26 -38,-38l-29 -15c-55,-28 -83,-63 -83,-105 0,-27 11,-51 32,-70 20,-19 47,-29 79,-29 22,0 43,5 63,15 19,10 36,24 49,42zm283 0l-53 54c-21,-21 -41,-32 -58,-32 -10,0 -17,2 -23,6 -5,4 -8,9 -8,15 0,5 2,9 5,13 4,4 12,9 26,16l31 16c33,16 56,33 68,50 12,17 19,37 19,60 0,30 -12,56 -34,76 -22,21 -52,31 -89,31 -50,0 -90,-20 -120,-59l53 -58c10,12 22,21 36,29 13,7 25,11 36,11 11,0 20,-3 27,-9 7,-5 10,-12 10,-19 0,-13 -12,-26 -37,-38l-29 -15c-55,-28 -83,-63 -83,-105 0,-27 11,-51 31,-70 21,-19 48,-29 80,-29 22,0 43,5 63,15 19,10 36,24 49,42z"/>
   <path class="fil4" d="M3758 731l85 0 0 35c20,-16 37,-28 53,-34 16,-6 32,-10 49,-10 33,0 62,12 86,36 20,20 30,50 30,89l0 225 -85 0 0 -149c0,-41 -2,-68 -6,-81 -3,-13 -10,-24 -19,-31 -9,-7 -20,-10 -33,-10 -18,0 -33,6 -45,17 -13,12 -21,28 -26,48 -3,11 -4,34 -4,70l0 136 -85 0 0 -341z"/>
   <path class="fil4" d="M3523 803c-26,0 -49,9 -66,27 -18,19 -27,43 -27,71 0,30 9,54 26,72 18,19 40,28 67,28 27,0 49,-9 67,-28 18,-18 27,-42 27,-72 0,-29 -9,-53 -27,-71 -17,-18 -39,-27 -67,-27zm-1 -81c32,0 63,8 91,24 29,17 51,38 67,66 16,28 24,57 24,89 0,32 -8,62 -24,90 -17,28 -38,50 -66,66 -28,16 -58,24 -92,24 -49,0 -91,-18 -125,-52 -35,-35 -53,-77 -53,-127 0,-53 20,-98 59,-133 35,-31 74,-47 119,-47z"/>
   <path class="fil4" d="M2986 599l86 0 0 167c17,-15 34,-26 50,-33 17,-7 34,-11 52,-11 34,0 62,12 85,35 20,21 30,51 30,90l0 225 -84 0 0 -149c0,-40 -2,-67 -6,-80 -4,-14 -10,-25 -19,-32 -9,-7 -21,-10 -34,-10 -17,0 -32,6 -44,17 -13,12 -21,27 -26,47 -3,10 -4,34 -4,70l0 137 -86 0 0 -473z"/>
   <polygon class="fil4" points="2797,605 2883,605 2883,731 2933,731 2933,805 2883,805 2883,1072 2797,1072 2797,805 2753,805 2753,731 2797,731 "/>
   <polygon class="fil4" points="2340,731 2428,731 2516,945 2614,731 2702,731 2488,1197 2401,1197 2470,1047 "/>
   <path class="fil4" d="M2097 791l28 0c22,0 38,-1 46,-5 9,-3 16,-8 21,-15 5,-8 7,-16 7,-27 0,-18 -7,-31 -21,-39 -10,-6 -29,-9 -56,-9l-25 0 0 95zm-88 -181l94 0c50,0 87,5 109,14 22,10 40,25 53,46 13,20 19,45 19,75 0,32 -8,59 -25,80 -17,21 -40,36 -69,45 -17,4 -48,7 -93,7l0 195 -88 0 0 -462z"/>
  </g>
 </g>
</svg>
